<mxfile host="app.diagrams.net" modified="2024-01-30T11:30:37.396Z" agent="Mozilla/5.0 (Windows NT 10.0; Win64; x64) AppleWebKit/537.36 (KHTML, like Gecko) Chrome/120.0.0.0 Safari/537.36" etag="yStzIRPfVB9-_IwFeAbV" version="23.0.2" type="device">
  <diagram name="Page-1" id="2YBvvXClWsGukQMizWep">
    <mxGraphModel dx="942" dy="654" grid="1" gridSize="10" guides="1" tooltips="1" connect="1" arrows="1" fold="1" page="1" pageScale="1" pageWidth="850" pageHeight="1100" math="0" shadow="0">
      <root>
        <mxCell id="0" />
        <mxCell id="1" parent="0" />
        <mxCell id="aM9ryv3xv72pqoxQDRHE-1" value="Client" style="shape=umlLifeline;perimeter=lifelinePerimeter;whiteSpace=wrap;html=1;container=0;dropTarget=0;collapsible=0;recursiveResize=0;outlineConnect=0;portConstraint=eastwest;newEdgeStyle={&quot;edgeStyle&quot;:&quot;elbowEdgeStyle&quot;,&quot;elbow&quot;:&quot;vertical&quot;,&quot;curved&quot;:0,&quot;rounded&quot;:0};" parent="1" vertex="1">
          <mxGeometry x="270" y="60" width="100" height="700" as="geometry" />
        </mxCell>
        <mxCell id="aM9ryv3xv72pqoxQDRHE-2" value="" style="html=1;points=[];perimeter=orthogonalPerimeter;outlineConnect=0;targetShapes=umlLifeline;portConstraint=eastwest;newEdgeStyle={&quot;edgeStyle&quot;:&quot;elbowEdgeStyle&quot;,&quot;elbow&quot;:&quot;vertical&quot;,&quot;curved&quot;:0,&quot;rounded&quot;:0};" parent="aM9ryv3xv72pqoxQDRHE-1" vertex="1">
          <mxGeometry x="45" y="70" width="10" height="610" as="geometry" />
        </mxCell>
        <mxCell id="aM9ryv3xv72pqoxQDRHE-4" value="" style="html=1;points=[];perimeter=orthogonalPerimeter;outlineConnect=0;targetShapes=umlLifeline;portConstraint=eastwest;newEdgeStyle={&quot;edgeStyle&quot;:&quot;elbowEdgeStyle&quot;,&quot;elbow&quot;:&quot;vertical&quot;,&quot;curved&quot;:0,&quot;rounded&quot;:0};" parent="aM9ryv3xv72pqoxQDRHE-1" vertex="1">
          <mxGeometry x="50" y="80" width="10" height="80" as="geometry" />
        </mxCell>
        <mxCell id="t7syPh7SxAsY6XeFM7f5-8" value="" style="html=1;points=[];perimeter=orthogonalPerimeter;outlineConnect=0;targetShapes=umlLifeline;portConstraint=eastwest;newEdgeStyle={&quot;edgeStyle&quot;:&quot;elbowEdgeStyle&quot;,&quot;elbow&quot;:&quot;vertical&quot;,&quot;curved&quot;:0,&quot;rounded&quot;:0};" parent="aM9ryv3xv72pqoxQDRHE-1" vertex="1">
          <mxGeometry x="50" y="190" width="10" height="150" as="geometry" />
        </mxCell>
        <mxCell id="aM9ryv3xv72pqoxQDRHE-5" value="Backend" style="shape=umlLifeline;perimeter=lifelinePerimeter;whiteSpace=wrap;html=1;container=0;dropTarget=0;collapsible=0;recursiveResize=0;outlineConnect=0;portConstraint=eastwest;newEdgeStyle={&quot;edgeStyle&quot;:&quot;elbowEdgeStyle&quot;,&quot;elbow&quot;:&quot;vertical&quot;,&quot;curved&quot;:0,&quot;rounded&quot;:0};" parent="1" vertex="1">
          <mxGeometry x="560" y="60" width="100" height="700" as="geometry" />
        </mxCell>
        <mxCell id="aM9ryv3xv72pqoxQDRHE-6" value="" style="html=1;points=[];perimeter=orthogonalPerimeter;outlineConnect=0;targetShapes=umlLifeline;portConstraint=eastwest;newEdgeStyle={&quot;edgeStyle&quot;:&quot;elbowEdgeStyle&quot;,&quot;elbow&quot;:&quot;vertical&quot;,&quot;curved&quot;:0,&quot;rounded&quot;:0};" parent="aM9ryv3xv72pqoxQDRHE-5" vertex="1">
          <mxGeometry x="45" y="80" width="10" height="600" as="geometry" />
        </mxCell>
        <mxCell id="aM9ryv3xv72pqoxQDRHE-7" value="Create checkout session for specific subscription" style="html=1;verticalAlign=bottom;endArrow=block;edgeStyle=elbowEdgeStyle;elbow=vertical;curved=0;rounded=0;" parent="1" edge="1">
          <mxGeometry relative="1" as="geometry">
            <mxPoint x="330" y="150" as="sourcePoint" />
            <Array as="points">
              <mxPoint x="375" y="150" />
            </Array>
            <mxPoint x="610" y="150" as="targetPoint" />
            <mxPoint as="offset" />
          </mxGeometry>
        </mxCell>
        <mxCell id="aM9ryv3xv72pqoxQDRHE-8" value="Return redirection to payment page within the session" style="html=1;verticalAlign=bottom;endArrow=open;dashed=1;endSize=8;edgeStyle=elbowEdgeStyle;elbow=vertical;curved=0;rounded=0;" parent="1" edge="1">
          <mxGeometry relative="1" as="geometry">
            <mxPoint x="330" y="200" as="targetPoint" />
            <Array as="points">
              <mxPoint x="385" y="200" />
            </Array>
            <mxPoint x="605" y="200" as="sourcePoint" />
          </mxGeometry>
        </mxCell>
        <mxCell id="t7syPh7SxAsY6XeFM7f5-1" value="Stripe Server" style="shape=umlLifeline;perimeter=lifelinePerimeter;whiteSpace=wrap;html=1;container=0;dropTarget=0;collapsible=0;recursiveResize=0;outlineConnect=0;portConstraint=eastwest;newEdgeStyle={&quot;edgeStyle&quot;:&quot;elbowEdgeStyle&quot;,&quot;elbow&quot;:&quot;vertical&quot;,&quot;curved&quot;:0,&quot;rounded&quot;:0};" parent="1" vertex="1">
          <mxGeometry x="720" y="60" width="100" height="700" as="geometry" />
        </mxCell>
        <mxCell id="t7syPh7SxAsY6XeFM7f5-2" value="" style="html=1;points=[];perimeter=orthogonalPerimeter;outlineConnect=0;targetShapes=umlLifeline;portConstraint=eastwest;newEdgeStyle={&quot;edgeStyle&quot;:&quot;elbowEdgeStyle&quot;,&quot;elbow&quot;:&quot;vertical&quot;,&quot;curved&quot;:0,&quot;rounded&quot;:0};" parent="t7syPh7SxAsY6XeFM7f5-1" vertex="1">
          <mxGeometry x="45" y="80" width="10" height="600" as="geometry" />
        </mxCell>
        <mxCell id="aM9ryv3xv72pqoxQDRHE-3" value="Click on subscribe" style="html=1;verticalAlign=bottom;startArrow=oval;endArrow=block;startSize=8;edgeStyle=elbowEdgeStyle;elbow=vertical;curved=0;rounded=0;" parent="1" edge="1">
          <mxGeometry relative="1" as="geometry">
            <mxPoint x="120" y="140" as="sourcePoint" />
            <mxPoint x="320" y="140" as="targetPoint" />
            <Array as="points">
              <mxPoint x="200.5" y="140" />
            </Array>
          </mxGeometry>
        </mxCell>
        <mxCell id="t7syPh7SxAsY6XeFM7f5-4" value="End user" style="shape=umlLifeline;perimeter=lifelinePerimeter;whiteSpace=wrap;html=1;container=0;dropTarget=0;collapsible=0;recursiveResize=0;outlineConnect=0;portConstraint=eastwest;newEdgeStyle={&quot;edgeStyle&quot;:&quot;elbowEdgeStyle&quot;,&quot;elbow&quot;:&quot;vertical&quot;,&quot;curved&quot;:0,&quot;rounded&quot;:0};" parent="1" vertex="1">
          <mxGeometry x="70" y="60" width="100" height="690" as="geometry" />
        </mxCell>
        <mxCell id="t7syPh7SxAsY6XeFM7f5-5" value="" style="html=1;points=[];perimeter=orthogonalPerimeter;outlineConnect=0;targetShapes=umlLifeline;portConstraint=eastwest;newEdgeStyle={&quot;edgeStyle&quot;:&quot;elbowEdgeStyle&quot;,&quot;elbow&quot;:&quot;vertical&quot;,&quot;curved&quot;:0,&quot;rounded&quot;:0};" parent="t7syPh7SxAsY6XeFM7f5-4" vertex="1">
          <mxGeometry x="45" y="70" width="10" height="610" as="geometry" />
        </mxCell>
        <mxCell id="t7syPh7SxAsY6XeFM7f5-10" value="Create a session" style="html=1;verticalAlign=bottom;endArrow=block;edgeStyle=elbowEdgeStyle;elbow=vertical;curved=0;rounded=0;" parent="1" edge="1">
          <mxGeometry relative="1" as="geometry">
            <mxPoint x="609.5" y="160" as="sourcePoint" />
            <Array as="points">
              <mxPoint x="680" y="160" />
            </Array>
            <mxPoint x="765" y="160" as="targetPoint" />
          </mxGeometry>
        </mxCell>
        <mxCell id="t7syPh7SxAsY6XeFM7f5-11" value="Return session" style="html=1;verticalAlign=bottom;endArrow=open;dashed=1;endSize=8;edgeStyle=elbowEdgeStyle;elbow=vertical;curved=0;rounded=0;" parent="1" edge="1">
          <mxGeometry relative="1" as="geometry">
            <mxPoint x="609.8103448275863" y="180" as="targetPoint" />
            <Array as="points">
              <mxPoint x="690" y="180" />
              <mxPoint x="560" y="110" />
            </Array>
            <mxPoint x="769.5" y="180" as="sourcePoint" />
          </mxGeometry>
        </mxCell>
        <mxCell id="t7syPh7SxAsY6XeFM7f5-12" value="Show checkout page" style="html=1;verticalAlign=bottom;endArrow=open;dashed=1;endSize=8;edgeStyle=elbowEdgeStyle;elbow=vertical;curved=0;rounded=0;" parent="1" edge="1">
          <mxGeometry relative="1" as="geometry">
            <mxPoint x="119.5" y="210" as="targetPoint" />
            <Array as="points">
              <mxPoint x="230" y="210" />
              <mxPoint x="120" y="260" />
            </Array>
            <mxPoint x="320" y="210" as="sourcePoint" />
          </mxGeometry>
        </mxCell>
        <mxCell id="t7syPh7SxAsY6XeFM7f5-13" value="Input payment data" style="html=1;verticalAlign=bottom;endArrow=block;edgeStyle=elbowEdgeStyle;elbow=horizontal;curved=0;rounded=0;" parent="1" source="t7syPh7SxAsY6XeFM7f5-4" target="t7syPh7SxAsY6XeFM7f5-8" edge="1">
          <mxGeometry relative="1" as="geometry">
            <mxPoint x="130" y="260" as="sourcePoint" />
            <Array as="points">
              <mxPoint x="290" y="260" />
              <mxPoint x="160.5" y="210" />
            </Array>
            <mxPoint x="330.5" y="260" as="targetPoint" />
          </mxGeometry>
        </mxCell>
        <mxCell id="t7syPh7SxAsY6XeFM7f5-14" value="Pay" style="html=1;verticalAlign=bottom;endArrow=block;edgeStyle=elbowEdgeStyle;elbow=horizontal;curved=0;rounded=0;" parent="1" edge="1">
          <mxGeometry relative="1" as="geometry">
            <mxPoint x="320" y="270" as="sourcePoint" />
            <Array as="points">
              <mxPoint x="350" y="270" />
            </Array>
            <mxPoint x="759.5" y="270" as="targetPoint" />
          </mxGeometry>
        </mxCell>
        <mxCell id="t7syPh7SxAsY6XeFM7f5-16" value="Return result" style="html=1;verticalAlign=bottom;endArrow=open;dashed=1;endSize=8;edgeStyle=elbowEdgeStyle;elbow=vertical;curved=0;rounded=0;" parent="1" source="t7syPh7SxAsY6XeFM7f5-1" target="t7syPh7SxAsY6XeFM7f5-8" edge="1">
          <mxGeometry relative="1" as="geometry">
            <mxPoint x="220" y="390" as="targetPoint" />
            <Array as="points">
              <mxPoint x="370" y="390" />
            </Array>
            <mxPoint x="649.5" y="390" as="sourcePoint" />
          </mxGeometry>
        </mxCell>
        <mxCell id="t7syPh7SxAsY6XeFM7f5-17" value="Success/Error payment" style="html=1;verticalAlign=bottom;endArrow=open;dashed=1;endSize=8;edgeStyle=elbowEdgeStyle;elbow=vertical;curved=0;rounded=0;" parent="1" source="t7syPh7SxAsY6XeFM7f5-8" target="t7syPh7SxAsY6XeFM7f5-5" edge="1">
          <mxGeometry relative="1" as="geometry">
            <mxPoint x="60" y="400" as="targetPoint" />
            <Array as="points">
              <mxPoint x="130.5" y="400" />
              <mxPoint x="120.5" y="420" />
            </Array>
            <mxPoint x="210.5" y="400" as="sourcePoint" />
          </mxGeometry>
        </mxCell>
        <mxCell id="t7syPh7SxAsY6XeFM7f5-18" value="Send subscribe events on /webhook" style="html=1;verticalAlign=bottom;endArrow=block;edgeStyle=elbowEdgeStyle;elbow=vertical;curved=0;rounded=0;" parent="1" edge="1">
          <mxGeometry relative="1" as="geometry">
            <mxPoint x="770" y="340.0044827586207" as="sourcePoint" />
            <Array as="points" />
            <mxPoint x="620" y="340.0044827586207" as="targetPoint" />
          </mxGeometry>
        </mxCell>
        <mxCell id="t7syPh7SxAsY6XeFM7f5-20" value="Subscribe" style="shape=umlFrame;whiteSpace=wrap;html=1;pointerEvents=0;" parent="1" vertex="1">
          <mxGeometry x="20" y="110" width="800" height="350" as="geometry" />
        </mxCell>
        <mxCell id="t7syPh7SxAsY6XeFM7f5-22" value="TODO:&amp;nbsp;&lt;br&gt;1) bind user/sub from db to stripe sub/customer&lt;br&gt;probably in checkout session(session.customer)&lt;br&gt;2) update frame&lt;br&gt;3) delete frame" style="whiteSpace=wrap;html=1;shape=mxgraph.basic.document" parent="1" vertex="1">
          <mxGeometry x="40" y="800" width="280" height="80" as="geometry" />
        </mxCell>
        <mxCell id="hBZCYL1Aw6CxiU3F_WQA-2" value="Upgrade" style="shape=umlFrame;whiteSpace=wrap;html=1;pointerEvents=0;" vertex="1" parent="1">
          <mxGeometry x="20" y="470" width="800" height="120" as="geometry" />
        </mxCell>
        <mxCell id="hBZCYL1Aw6CxiU3F_WQA-3" value="Click on upgrdage" style="html=1;verticalAlign=bottom;startArrow=oval;endArrow=block;startSize=8;edgeStyle=elbowEdgeStyle;elbow=vertical;curved=0;rounded=0;" edge="1" parent="1">
          <mxGeometry relative="1" as="geometry">
            <mxPoint x="120" y="490" as="sourcePoint" />
            <mxPoint x="320" y="490" as="targetPoint" />
            <Array as="points">
              <mxPoint x="200" y="490" />
            </Array>
          </mxGeometry>
        </mxCell>
        <mxCell id="hBZCYL1Aw6CxiU3F_WQA-6" value="" style="html=1;points=[];perimeter=orthogonalPerimeter;outlineConnect=0;targetShapes=umlLifeline;portConstraint=eastwest;newEdgeStyle={&quot;edgeStyle&quot;:&quot;elbowEdgeStyle&quot;,&quot;elbow&quot;:&quot;vertical&quot;,&quot;curved&quot;:0,&quot;rounded&quot;:0};" vertex="1" parent="1">
          <mxGeometry x="320" y="490" width="10" height="80" as="geometry" />
        </mxCell>
        <mxCell id="hBZCYL1Aw6CxiU3F_WQA-7" value="Upgrade the subscription" style="html=1;verticalAlign=bottom;endArrow=block;edgeStyle=elbowEdgeStyle;elbow=vertical;curved=0;rounded=0;" edge="1" parent="1">
          <mxGeometry relative="1" as="geometry">
            <mxPoint x="330" y="500" as="sourcePoint" />
            <Array as="points">
              <mxPoint x="375" y="500" />
            </Array>
            <mxPoint x="769.5" y="500" as="targetPoint" />
          </mxGeometry>
        </mxCell>
        <mxCell id="hBZCYL1Aw6CxiU3F_WQA-9" value="Send upgrade events on /webhook" style="html=1;verticalAlign=bottom;endArrow=block;edgeStyle=elbowEdgeStyle;elbow=vertical;curved=0;rounded=0;" edge="1" parent="1">
          <mxGeometry relative="1" as="geometry">
            <mxPoint x="770" y="529.5044827586207" as="sourcePoint" />
            <Array as="points" />
            <mxPoint x="620" y="529.5044827586207" as="targetPoint" />
          </mxGeometry>
        </mxCell>
        <mxCell id="hBZCYL1Aw6CxiU3F_WQA-10" value="Return result" style="html=1;verticalAlign=bottom;endArrow=open;dashed=1;endSize=8;edgeStyle=elbowEdgeStyle;elbow=vertical;curved=0;rounded=0;" edge="1" parent="1">
          <mxGeometry relative="1" as="geometry">
            <mxPoint x="330" y="549" as="targetPoint" />
            <Array as="points">
              <mxPoint x="370" y="549" />
            </Array>
            <mxPoint x="770" y="549" as="sourcePoint" />
          </mxGeometry>
        </mxCell>
        <mxCell id="hBZCYL1Aw6CxiU3F_WQA-11" value="Success/Error upgrade" style="html=1;verticalAlign=bottom;endArrow=open;dashed=1;endSize=8;edgeStyle=elbowEdgeStyle;elbow=vertical;curved=0;rounded=0;" edge="1" parent="1">
          <mxGeometry relative="1" as="geometry">
            <mxPoint x="125" y="560" as="targetPoint" />
            <Array as="points">
              <mxPoint x="130.5" y="560" />
              <mxPoint x="120.5" y="580" />
            </Array>
            <mxPoint x="320" y="560" as="sourcePoint" />
          </mxGeometry>
        </mxCell>
        <mxCell id="hBZCYL1Aw6CxiU3F_WQA-12" value="Upgrade" style="shape=umlFrame;whiteSpace=wrap;html=1;pointerEvents=0;" vertex="1" parent="1">
          <mxGeometry x="20" y="600" width="800" height="120" as="geometry" />
        </mxCell>
        <mxCell id="hBZCYL1Aw6CxiU3F_WQA-13" value="Click on upgrdage" style="html=1;verticalAlign=bottom;startArrow=oval;endArrow=block;startSize=8;edgeStyle=elbowEdgeStyle;elbow=vertical;curved=0;rounded=0;" edge="1" parent="1">
          <mxGeometry relative="1" as="geometry">
            <mxPoint x="120" y="620" as="sourcePoint" />
            <mxPoint x="320" y="620" as="targetPoint" />
            <Array as="points">
              <mxPoint x="200" y="620" />
            </Array>
          </mxGeometry>
        </mxCell>
        <mxCell id="hBZCYL1Aw6CxiU3F_WQA-14" value="" style="html=1;points=[];perimeter=orthogonalPerimeter;outlineConnect=0;targetShapes=umlLifeline;portConstraint=eastwest;newEdgeStyle={&quot;edgeStyle&quot;:&quot;elbowEdgeStyle&quot;,&quot;elbow&quot;:&quot;vertical&quot;,&quot;curved&quot;:0,&quot;rounded&quot;:0};" vertex="1" parent="1">
          <mxGeometry x="320" y="620" width="10" height="80" as="geometry" />
        </mxCell>
        <mxCell id="hBZCYL1Aw6CxiU3F_WQA-15" value="Delete the subscription" style="html=1;verticalAlign=bottom;endArrow=block;edgeStyle=elbowEdgeStyle;elbow=vertical;curved=0;rounded=0;" edge="1" parent="1">
          <mxGeometry relative="1" as="geometry">
            <mxPoint x="330" y="630" as="sourcePoint" />
            <Array as="points">
              <mxPoint x="375" y="630" />
            </Array>
            <mxPoint x="769.5" y="630" as="targetPoint" />
          </mxGeometry>
        </mxCell>
        <mxCell id="hBZCYL1Aw6CxiU3F_WQA-16" value="Send delete events on /webhook" style="html=1;verticalAlign=bottom;endArrow=block;edgeStyle=elbowEdgeStyle;elbow=vertical;curved=0;rounded=0;" edge="1" parent="1">
          <mxGeometry relative="1" as="geometry">
            <mxPoint x="770" y="659.5044827586207" as="sourcePoint" />
            <Array as="points" />
            <mxPoint x="620" y="659.5044827586207" as="targetPoint" />
          </mxGeometry>
        </mxCell>
        <mxCell id="hBZCYL1Aw6CxiU3F_WQA-17" value="Return result" style="html=1;verticalAlign=bottom;endArrow=open;dashed=1;endSize=8;edgeStyle=elbowEdgeStyle;elbow=vertical;curved=0;rounded=0;" edge="1" parent="1">
          <mxGeometry relative="1" as="geometry">
            <mxPoint x="330" y="680" as="targetPoint" />
            <Array as="points">
              <mxPoint x="370" y="680" />
            </Array>
            <mxPoint x="770" y="680" as="sourcePoint" />
          </mxGeometry>
        </mxCell>
        <mxCell id="hBZCYL1Aw6CxiU3F_WQA-18" value="Success/Error delete" style="html=1;verticalAlign=bottom;endArrow=open;dashed=1;endSize=8;edgeStyle=elbowEdgeStyle;elbow=vertical;curved=0;rounded=0;" edge="1" parent="1">
          <mxGeometry relative="1" as="geometry">
            <mxPoint x="120" y="690" as="targetPoint" />
            <Array as="points">
              <mxPoint x="125.5" y="690" />
              <mxPoint x="115.5" y="710" />
            </Array>
            <mxPoint x="315" y="690" as="sourcePoint" />
          </mxGeometry>
        </mxCell>
      </root>
    </mxGraphModel>
  </diagram>
</mxfile>
